solid GarageDoorMonitorCaseWithOLED
facet normal 0.7933533402912227 -0.6087614290087369 3.762302709822191e-14
  outer loop
    vertex 90.86706804593663 119.69277831920294 30.100000000000048
    vertex 91.18490529113242 120.10699188157608 31.100000000000026
    vertex 90.86706804593663 119.69277831920299 31.100000000000044
  endloop
endfacet
facet normal 0.7933533402912227 -0.6087614290087369 3.762302709822191e-14
  outer loop
    vertex 91.18490529113242 120.10699188157608 31.100000000000026
    vertex 90.86706804593663 119.69277831920294 30.100000000000048
    vertex 91.18490529113242 120.10699188157602 30.10000000000003
  endloop
endfacet
facet normal 0.9914448613738096 0.13052619222005857 2.3288038143769257e-17
  outer loop
    vertex 91.45285448356356 121.10699188157608 31.099999999999977
    vertex 91.3847061361417 121.62462997178106 30.09999999999995
    vertex 91.38470613614169 121.6246299717811 31.099999999999948
  endloop
endfacet
facet normal 0.9914448613738096 0.13052619222005857 2.3288038143769257e-17
  outer loop
    vertex 91.3847061361417 121.62462997178106 30.09999999999995
    vertex 91.45285448356356 121.10699188157608 31.099999999999977
    vertex 91.45285448356356 121.10699188157602 30.09999999999998
  endloop
endfacet
facet normal 0.9914448613738072 -0.1305261922200776 1.3787450814912876e-14
  outer loop
    vertex 91.38470613614167 120.58935379137104 31.100000000000005
    vertex 91.45285448356356 121.10699188157602 30.09999999999998
    vertex 91.45285448356356 121.10699188157608 31.099999999999977
  endloop
endfacet
facet normal 0.9914448613738072 -0.1305261922200776 1.3787450814912876e-14
  outer loop
    vertex 91.45285448356356 121.10699188157602 30.09999999999998
    vertex 91.38470613614167 120.58935379137104 31.100000000000005
    vertex 91.38470613614169 120.58935379137097 30.10000000000001
  endloop
endfacet
facet normal 0.9238795325112825 -0.38268343236510016 2.6612021603482987e-14
  outer loop
    vertex 91.18490529113242 120.10699188157608 31.100000000000026
    vertex 91.38470613614169 120.58935379137097 30.10000000000001
    vertex 91.38470613614167 120.58935379137104 31.100000000000005
  endloop
endfacet
facet normal 0.9238795325112825 -0.38268343236510016 2.6612021603482987e-14
  outer loop
    vertex 91.38470613614169 120.58935379137097 30.10000000000001
    vertex 91.18490529113242 120.10699188157608 31.100000000000026
    vertex 91.18490529113242 120.10699188157602 30.10000000000003
  endloop
endfacet
facet normal 0.6087614290087349 0.7933533402912244 -3.7590092838835966e-14
  outer loop
    vertex 90.86706804593666 122.52120544394919 31.0999999999999
    vertex 90.45285448356358 122.8390426891449 30.099999999999877
    vertex 90.45285448356357 122.83904268914497 31.099999999999877
  endloop
endfacet
facet normal 0.6087614290087349 0.7933533402912244 -3.7590092838835966e-14
  outer loop
    vertex 90.45285448356358 122.8390426891449 30.099999999999877
    vertex 90.86706804593666 122.52120544394919 31.0999999999999
    vertex 90.86706804593668 122.52120544394914 30.0999999999999
  endloop
endfacet
facet normal 0.9238795325113005 0.38268343236505675 -1.3742461779935628e-14
  outer loop
    vertex 91.38470613614169 121.6246299717811 31.099999999999948
    vertex 91.18490529113245 122.10699188157604 30.099999999999923
    vertex 91.18490529113245 122.10699188157608 31.09999999999992
  endloop
endfacet
facet normal 0.9238795325113005 0.38268343236505675 -1.3742461779935628e-14
  outer loop
    vertex 91.18490529113245 122.10699188157604 30.099999999999923
    vertex 91.38470613614169 121.6246299717811 31.099999999999948
    vertex 91.3847061361417 121.62462997178106 30.09999999999995
  endloop
endfacet
facet normal 0.7933533402912376 0.6087614290087175 -2.6571685538208027e-14
  outer loop
    vertex 91.18490529113245 122.10699188157608 31.09999999999992
    vertex 90.86706804593668 122.52120544394914 30.0999999999999
    vertex 90.86706804593666 122.52120544394919 31.0999999999999
  endloop
endfacet
facet normal 0.7933533402912376 0.6087614290087175 -2.6571685538208027e-14
  outer loop
    vertex 90.86706804593668 122.52120544394914 30.0999999999999
    vertex 91.18490529113245 122.10699188157608 31.09999999999992
    vertex 91.18490529113245 122.10699188157604 30.099999999999923
  endloop
endfacet
facet normal -6.9649555871007345e-15 5.272567345549561e-14 1.0
  outer loop
    vertex 87.72080367599465 120.10699188157614 31.100000000000005
    vertex 87.45285448356354 121.10699188157614 31.099999999999948
    vertex 87.52100283098541 120.58935379137108 31.099999999999977
  endloop
endfacet
facet normal -6.9649555871007345e-15 5.272567345549561e-14 1.0
  outer loop
    vertex 87.45285448356354 121.10699188157614 31.099999999999948
    vertex 87.72080367599465 120.10699188157614 31.100000000000005
    vertex 88.03864092119044 119.69277831920303 31.100000000000026
  endloop
endfacet
facet normal -6.9649555871007345e-15 5.272567345549561e-14 1.0
  outer loop
    vertex 87.45285448356354 121.10699188157614 31.099999999999948
    vertex 88.03864092119044 119.69277831920303 31.100000000000026
    vertex 87.52100283098542 121.62462997178118 31.09999999999992
  endloop
endfacet
facet normal -6.9649555871007345e-15 5.272567345549561e-14 1.0
  outer loop
    vertex 87.52100283098542 121.62462997178118 31.09999999999992
    vertex 88.03864092119044 119.69277831920303 31.100000000000026
    vertex 88.45285448356353 119.37494107400724 31.100000000000044
  endloop
endfacet
facet normal -6.9649555871007345e-15 5.272567345549561e-14 1.0
  outer loop
    vertex 87.52100283098542 121.62462997178118 31.09999999999992
    vertex 88.45285448356353 119.37494107400724 31.100000000000044
    vertex 87.72080367599469 122.10699188157612 31.0999999999999
  endloop
endfacet
facet normal -6.9649555871007345e-15 5.272567345549561e-14 1.0
  outer loop
    vertex 87.72080367599469 122.10699188157612 31.0999999999999
    vertex 88.45285448356353 119.37494107400724 31.100000000000044
    vertex 88.93521639335849 119.17514022899799 31.100000000000062
  endloop
endfacet
facet normal -6.9649555871007345e-15 5.272567345549561e-14 1.0
  outer loop
    vertex 87.72080367599469 122.10699188157612 31.0999999999999
    vertex 88.93521639335849 119.17514022899799 31.100000000000062
    vertex 88.03864092119048 122.52120544394923 31.099999999999877
  endloop
endfacet
facet normal -6.9649555871007345e-15 5.272567345549561e-14 1.0
  outer loop
    vertex 88.03864092119048 122.52120544394923 31.099999999999877
    vertex 88.93521639335849 119.17514022899799 31.100000000000062
    vertex 89.45285448356351 119.1069918815761 31.100000000000065
  endloop
endfacet
facet normal -6.9649555871007345e-15 5.272567345549561e-14 1.0
  outer loop
    vertex 88.03864092119048 122.52120544394923 31.099999999999877
    vertex 89.45285448356351 119.1069918815761 31.100000000000065
    vertex 88.45285448356357 122.83904268914499 31.099999999999863
  endloop
endfacet
facet normal -6.9649555871007345e-15 5.272567345549561e-14 1.0
  outer loop
    vertex 88.45285448356357 122.83904268914499 31.099999999999863
    vertex 89.45285448356351 119.1069918815761 31.100000000000065
    vertex 88.96989157041901 120.97758235902484 31.099999999999966
  endloop
endfacet
facet normal -6.9649555871007345e-15 5.272567345549561e-14 1.0
  outer loop
    vertex 88.96989157041901 120.97758235902484 31.099999999999966
    vertex 89.45285448356351 119.1069918815761 31.100000000000065
    vertex 89.01984178167133 120.85699188157612 31.09999999999997
  endloop
endfacet
facet normal -6.9649555871007345e-15 5.272567345549561e-14 1.0
  outer loop
    vertex 89.01984178167133 120.85699188157612 31.09999999999997
    vertex 89.45285448356351 119.1069918815761 31.100000000000065
    vertex 89.97049257376857 119.17514022899796 31.100000000000065
  endloop
endfacet
facet normal -6.9649555871007345e-15 5.272567345549561e-14 1.0
  outer loop
    vertex 89.01984178167133 120.85699188157612 31.09999999999997
    vertex 89.97049257376857 119.17514022899796 31.100000000000065
    vertex 89.09930109297028 120.75343849098283 31.099999999999977
  endloop
endfacet
facet normal -6.9649555871007345e-15 5.272567345549561e-14 1.0
  outer loop
    vertex 89.09930109297028 120.75343849098283 31.099999999999977
    vertex 89.97049257376857 119.17514022899796 31.100000000000065
    vertex 89.20285448356354 120.67397917968388 31.099999999999984
  endloop
endfacet
facet normal -6.9649555871007345e-15 5.272567345549561e-14 1.0
  outer loop
    vertex 89.20285448356354 120.67397917968388 31.099999999999984
    vertex 89.97049257376857 119.17514022899796 31.100000000000065
    vertex 89.32344496101229 120.62402896843156 31.099999999999987
  endloop
endfacet
facet normal -6.9649555871007345e-15 5.272567345549561e-14 1.0
  outer loop
    vertex 89.32344496101229 120.62402896843156 31.099999999999987
    vertex 89.97049257376857 119.17514022899796 31.100000000000065
    vertex 89.45285448356356 120.6069918815761 31.099999999999987
  endloop
endfacet
facet normal -6.9649555871007345e-15 5.272567345549561e-14 1.0
  outer loop
    vertex 89.45285448356356 120.6069918815761 31.099999999999987
    vertex 89.97049257376857 119.17514022899796 31.100000000000065
    vertex 89.58226400611481 120.62402896843156 31.099999999999987
  endloop
endfacet
facet normal -6.9649555871007345e-15 5.272567345549561e-14 1.0
  outer loop
    vertex 89.58226400611481 120.62402896843156 31.099999999999987
    vertex 89.97049257376857 119.17514022899796 31.100000000000065
    vertex 90.45285448356353 119.37494107400721 31.100000000000062
  endloop
endfacet
facet normal -6.9649555871007345e-15 5.272567345549561e-14 1.0
  outer loop
    vertex 89.58226400611481 120.62402896843156 31.099999999999987
    vertex 90.45285448356353 119.37494107400721 31.100000000000062
    vertex 89.70285448356354 120.67397917968388 31.099999999999987
  endloop
endfacet
facet normal -6.9649555871007345e-15 5.272567345549561e-14 1.0
  outer loop
    vertex 89.70285448356354 120.67397917968388 31.099999999999987
    vertex 90.45285448356353 119.37494107400721 31.100000000000062
    vertex 89.80640787415682 120.75343849098283 31.099999999999984
  endloop
endfacet
facet normal -6.9649555871007345e-15 5.272567345549561e-14 1.0
  outer loop
    vertex 89.80640787415682 120.75343849098283 31.099999999999984
    vertex 90.45285448356353 119.37494107400721 31.100000000000062
    vertex 89.88586718545577 120.85699188157609 31.099999999999977
  endloop
endfacet
facet normal -6.9649555871007345e-15 5.272567345549561e-14 1.0
  outer loop
    vertex 89.88586718545577 120.85699188157609 31.099999999999977
    vertex 90.45285448356353 119.37494107400721 31.100000000000062
    vertex 89.93581739670809 120.97758235902484 31.09999999999997
  endloop
endfacet
facet normal -6.9649555871007345e-15 5.272567345549561e-14 1.0
  outer loop
    vertex 89.93581739670809 120.97758235902484 31.09999999999997
    vertex 90.45285448356353 119.37494107400721 31.100000000000062
    vertex 89.95285448356356 121.1069918815761 31.099999999999966
  endloop
endfacet
facet normal -6.9649555871007345e-15 5.272567345549561e-14 1.0
  outer loop
    vertex 89.95285448356356 121.1069918815761 31.099999999999966
    vertex 90.45285448356353 119.37494107400721 31.100000000000062
    vertex 89.93581739670809 121.23640140412735 31.09999999999996
  endloop
endfacet
facet normal -6.9649555871007345e-15 5.272567345549561e-14 1.0
  outer loop
    vertex 88.45285448356357 122.83904268914499 31.099999999999863
    vertex 88.95285448356356 121.1069918815761 31.09999999999996
    vertex 88.93521639335854 123.03884353415425 31.09999999999986
  endloop
endfacet
facet normal -6.9649555871007345e-15 5.272567345549561e-14 1.0
  outer loop
    vertex 88.95285448356356 121.1069918815761 31.09999999999996
    vertex 88.45285448356357 122.83904268914499 31.099999999999863
    vertex 88.96989157041901 120.97758235902484 31.099999999999966
  endloop
endfacet
facet normal -6.9649555871007345e-15 5.272567345549561e-14 1.0
  outer loop
    vertex 88.93521639335854 123.03884353415425 31.09999999999986
    vertex 88.95285448356356 121.1069918815761 31.09999999999996
    vertex 88.96989157041902 121.23640140412738 31.099999999999955
  endloop
endfacet
facet normal -6.9649555871007345e-15 5.272567345549561e-14 1.0
  outer loop
    vertex 88.93521639335854 123.03884353415425 31.09999999999986
    vertex 88.96989157041902 121.23640140412738 31.099999999999955
    vertex 89.01984178167133 121.35699188157612 31.099999999999945
  endloop
endfacet
facet normal -6.9649555871007345e-15 5.272567345549561e-14 1.0
  outer loop
    vertex 88.93521639335854 123.03884353415425 31.09999999999986
    vertex 89.01984178167133 121.35699188157612 31.099999999999945
    vertex 89.09930109297028 121.46054527216938 31.099999999999945
  endloop
endfacet
facet normal -6.9649555871007345e-15 5.272567345549561e-14 1.0
  outer loop
    vertex 88.93521639335854 123.03884353415425 31.09999999999986
    vertex 89.09930109297028 121.46054527216938 31.099999999999945
    vertex 89.20285448356357 121.54000458346832 31.099999999999937
  endloop
endfacet
facet normal -6.9649555871007345e-15 5.272567345549561e-14 1.0
  outer loop
    vertex 88.93521639335854 123.03884353415425 31.09999999999986
    vertex 89.20285448356357 121.54000458346832 31.099999999999937
    vertex 89.3234449610123 121.58995479472065 31.099999999999937
  endloop
endfacet
facet normal -6.9649555871007345e-15 5.272567345549561e-14 1.0
  outer loop
    vertex 88.93521639335854 123.03884353415425 31.09999999999986
    vertex 89.3234449610123 121.58995479472065 31.099999999999937
    vertex 89.45285448356356 121.6069918815761 31.099999999999937
  endloop
endfacet
facet normal -6.9649555871007345e-15 5.272567345549561e-14 1.0
  outer loop
    vertex 88.93521639335854 123.03884353415425 31.09999999999986
    vertex 89.45285448356356 121.6069918815761 31.099999999999937
    vertex 89.45285448356358 123.1069918815761 31.09999999999986
  endloop
endfacet
facet normal -6.9649555871007345e-15 5.272567345549561e-14 1.0
  outer loop
    vertex 89.45285448356358 123.1069918815761 31.09999999999986
    vertex 89.45285448356356 121.6069918815761 31.099999999999937
    vertex 89.58226400611483 121.58995479472063 31.099999999999937
  endloop
endfacet
facet normal -6.9649555871007345e-15 5.272567345549561e-14 1.0
  outer loop
    vertex 89.45285448356358 123.1069918815761 31.09999999999986
    vertex 89.58226400611483 121.58995479472063 31.099999999999937
    vertex 89.70285448356356 121.54000458346832 31.099999999999945
  endloop
endfacet
facet normal -6.9649555871007345e-15 5.272567345549561e-14 1.0
  outer loop
    vertex 89.45285448356358 123.1069918815761 31.09999999999986
    vertex 89.70285448356356 121.54000458346832 31.099999999999945
    vertex 89.80640787415683 121.46054527216938 31.099999999999948
  endloop
endfacet
facet normal -6.9649555871007345e-15 5.272567345549561e-14 1.0
  outer loop
    vertex 89.45285448356358 123.1069918815761 31.09999999999986
    vertex 89.80640787415683 121.46054527216938 31.099999999999948
    vertex 89.88586718545577 121.35699188157609 31.099999999999955
  endloop
endfacet
facet normal -6.9649555871007345e-15 5.272567345549561e-14 1.0
  outer loop
    vertex 89.45285448356358 123.1069918815761 31.09999999999986
    vertex 89.88586718545577 121.35699188157609 31.099999999999955
    vertex 89.93581739670809 121.23640140412735 31.09999999999996
  endloop
endfacet
facet normal -6.9649555871007345e-15 5.272567345549561e-14 1.0
  outer loop
    vertex 89.45285448356358 123.1069918815761 31.09999999999986
    vertex 89.93581739670809 121.23640140412735 31.09999999999996
    vertex 90.45285448356353 119.37494107400721 31.100000000000062
  endloop
endfacet
facet normal -6.9649555871007345e-15 5.272567345549561e-14 1.0
  outer loop
    vertex 89.45285448356358 123.1069918815761 31.09999999999986
    vertex 90.45285448356353 119.37494107400721 31.100000000000062
    vertex 90.86706804593663 119.69277831920299 31.100000000000044
  endloop
endfacet
facet normal -6.9649555871007345e-15 5.272567345549561e-14 1.0
  outer loop
    vertex 89.45285448356358 123.1069918815761 31.09999999999986
    vertex 90.86706804593663 119.69277831920299 31.100000000000044
    vertex 89.97049257376862 123.03884353415422 31.099999999999863
  endloop
endfacet
facet normal -6.9649555871007345e-15 5.272567345549561e-14 1.0
  outer loop
    vertex 89.97049257376862 123.03884353415422 31.099999999999863
    vertex 90.86706804593663 119.69277831920299 31.100000000000044
    vertex 91.18490529113242 120.10699188157608 31.100000000000026
  endloop
endfacet
facet normal -6.9649555871007345e-15 5.272567345549561e-14 1.0
  outer loop
    vertex 89.97049257376862 123.03884353415422 31.099999999999863
    vertex 91.18490529113242 120.10699188157608 31.100000000000026
    vertex 90.45285448356357 122.83904268914497 31.099999999999877
  endloop
endfacet
facet normal -6.9649555871007345e-15 5.272567345549561e-14 1.0
  outer loop
    vertex 90.45285448356357 122.83904268914497 31.099999999999877
    vertex 91.18490529113242 120.10699188157608 31.100000000000026
    vertex 91.38470613614167 120.58935379137104 31.100000000000005
  endloop
endfacet
facet normal -6.9649555871007345e-15 5.272567345549561e-14 1.0
  outer loop
    vertex 90.45285448356357 122.83904268914497 31.099999999999877
    vertex 91.38470613614167 120.58935379137104 31.100000000000005
    vertex 90.86706804593666 122.52120544394919 31.0999999999999
  endloop
endfacet
facet normal -6.9649555871007345e-15 5.272567345549561e-14 1.0
  outer loop
    vertex 90.86706804593666 122.52120544394919 31.0999999999999
    vertex 91.38470613614167 120.58935379137104 31.100000000000005
    vertex 91.45285448356356 121.10699188157608 31.099999999999977
  endloop
endfacet
facet normal -6.9649555871007345e-15 5.272567345549561e-14 1.0
  outer loop
    vertex 90.86706804593666 122.52120544394919 31.0999999999999
    vertex 91.45285448356356 121.10699188157608 31.099999999999977
    vertex 91.18490529113245 122.10699188157608 31.09999999999992
  endloop
endfacet
facet normal -6.9649555871007345e-15 5.272567345549561e-14 1.0
  outer loop
    vertex 91.18490529113245 122.10699188157608 31.09999999999992
    vertex 91.45285448356356 121.10699188157608 31.099999999999977
    vertex 91.38470613614169 121.6246299717811 31.099999999999948
  endloop
endfacet
facet normal -6.9649555871007345e-15 5.272567345549561e-14 1.0
  outer loop
    vertex 86.85477827221021 119.60699188157609 30.100000000000023
    vertex 86.45285448356356 121.10699188157608 30.099999999999945
    vertex 86.55507700469633 120.33053474626853 30.099999999999984
  endloop
endfacet
facet normal -6.9649555871007345e-15 5.272567345549561e-14 1.0
  outer loop
    vertex 86.45285448356356 121.10699188157608 30.099999999999945
    vertex 86.85477827221021 119.60699188157609 30.100000000000023
    vertex 87.33153414000388 118.98567153801643 30.100000000000062
  endloop
endfacet
facet normal -6.9649555871007345e-15 5.272567345549561e-14 1.0
  outer loop
    vertex 86.45285448356356 121.10699188157608 30.099999999999945
    vertex 87.33153414000388 118.98567153801643 30.100000000000062
    vertex 86.55507700469636 121.88344901688366 30.099999999999905
  endloop
endfacet
facet normal -6.9649555871007345e-15 5.272567345549561e-14 1.0
  outer loop
    vertex 86.55507700469636 121.88344901688366 30.099999999999905
    vertex 87.33153414000388 118.98567153801643 30.100000000000062
    vertex 87.95285448356353 118.50891567022276 30.10000000000009
  endloop
endfacet
facet normal -6.9649555871007345e-15 5.272567345549561e-14 1.0
  outer loop
    vertex 86.55507700469636 121.88344901688366 30.099999999999905
    vertex 87.95285448356353 118.50891567022276 30.10000000000009
    vertex 86.85477827221027 122.60699188157608 30.099999999999866
  endloop
endfacet
facet normal -6.9649555871007345e-15 5.272567345549561e-14 1.0
  outer loop
    vertex 86.85477827221027 122.60699188157608 30.099999999999866
    vertex 87.95285448356353 118.50891567022276 30.10000000000009
    vertex 87.52100283098541 120.58935379137104 30.09999999999998
  endloop
endfacet
facet normal -6.9649555871007345e-15 5.272567345549561e-14 1.0
  outer loop
    vertex 87.52100283098541 120.58935379137104 30.09999999999998
    vertex 87.95285448356353 118.50891567022276 30.10000000000009
    vertex 87.72080367599466 120.10699188157606 30.10000000000001
  endloop
endfacet
facet normal -6.9649555871007345e-15 5.272567345549561e-14 1.0
  outer loop
    vertex 87.72080367599466 120.10699188157606 30.10000000000001
    vertex 87.95285448356353 118.50891567022276 30.10000000000009
    vertex 88.67639734825595 118.20921440270885 30.100000000000115
  endloop
endfacet
facet normal -6.9649555871007345e-15 5.272567345549561e-14 1.0
  outer loop
    vertex 87.72080367599466 120.10699188157606 30.10000000000001
    vertex 88.67639734825595 118.20921440270885 30.100000000000115
    vertex 88.03864092119045 119.69277831920299 30.10000000000003
  endloop
endfacet
facet normal -6.9649555871007345e-15 5.272567345549561e-14 1.0
  outer loop
    vertex 88.03864092119045 119.69277831920299 30.10000000000003
    vertex 88.67639734825595 118.20921440270885 30.100000000000115
    vertex 88.45285448356353 119.3749410740072 30.100000000000048
  endloop
endfacet
facet normal -6.9649555871007345e-15 5.272567345549561e-14 1.0
  outer loop
    vertex 88.45285448356353 119.3749410740072 30.100000000000048
    vertex 88.67639734825595 118.20921440270885 30.100000000000115
    vertex 89.45285448356351 118.10699188157605 30.10000000000012
  endloop
endfacet
facet normal -6.9649555871007345e-15 5.272567345549561e-14 1.0
  outer loop
    vertex 88.45285448356353 119.3749410740072 30.100000000000048
    vertex 89.45285448356351 118.10699188157605 30.10000000000012
    vertex 88.93521639335849 119.17514022899792 30.100000000000062
  endloop
endfacet
facet normal -6.9649555871007345e-15 5.272567345549561e-14 1.0
  outer loop
    vertex 88.93521639335849 119.17514022899792 30.100000000000062
    vertex 89.45285448356351 118.10699188157605 30.10000000000012
    vertex 89.45285448356353 119.10699188157604 30.10000000000007
  endloop
endfacet
facet normal -6.9649555871007345e-15 5.272567345549561e-14 1.0
  outer loop
    vertex 89.45285448356353 119.10699188157604 30.10000000000007
    vertex 89.45285448356351 118.10699188157605 30.10000000000012
    vertex 90.22931161887108 118.20921440270884 30.10000000000012
  endloop
endfacet
facet normal -6.9649555871007345e-15 5.272567345549561e-14 1.0
  outer loop
    vertex 89.45285448356353 119.10699188157604 30.10000000000007
    vertex 90.22931161887108 118.20921440270884 30.10000000000012
    vertex 89.97049257376858 119.17514022899789 30.10000000000007
  endloop
endfacet
facet normal -6.9649555871007345e-15 5.272567345549561e-14 1.0
  outer loop
    vertex 89.97049257376858 119.17514022899789 30.10000000000007
    vertex 90.22931161887108 118.20921440270884 30.10000000000012
    vertex 90.95285448356351 118.50891567022272 30.100000000000115
  endloop
endfacet
facet normal -6.9649555871007345e-15 5.272567345549561e-14 1.0
  outer loop
    vertex 89.97049257376858 119.17514022899789 30.10000000000007
    vertex 90.95285448356351 118.50891567022272 30.100000000000115
    vertex 90.45285448356354 119.37494107400715 30.100000000000062
  endloop
endfacet
facet normal -6.9649555871007345e-15 5.272567345549561e-14 1.0
  outer loop
    vertex 90.45285448356354 119.37494107400715 30.100000000000062
    vertex 90.95285448356351 118.50891567022272 30.100000000000115
    vertex 90.86706804593663 119.69277831920294 30.100000000000048
  endloop
endfacet
facet normal -6.9649555871007345e-15 5.272567345549561e-14 1.0
  outer loop
    vertex 90.86706804593663 119.69277831920294 30.100000000000048
    vertex 90.95285448356351 118.50891567022272 30.100000000000115
    vertex 91.57417482712317 118.98567153801636 30.10000000000009
  endloop
endfacet
facet normal -6.9649555871007345e-15 5.272567345549561e-14 1.0
  outer loop
    vertex 90.86706804593663 119.69277831920294 30.100000000000048
    vertex 91.57417482712317 118.98567153801636 30.10000000000009
    vertex 91.18490529113242 120.10699188157602 30.10000000000003
  endloop
endfacet
facet normal -6.9649555871007345e-15 5.272567345549561e-14 1.0
  outer loop
    vertex 91.18490529113242 120.10699188157602 30.10000000000003
    vertex 91.57417482712317 118.98567153801636 30.10000000000009
    vertex 91.38470613614169 120.58935379137097 30.10000000000001
  endloop
endfacet
facet normal -6.9649555871007345e-15 5.272567345549561e-14 1.0
  outer loop
    vertex 91.38470613614169 120.58935379137097 30.10000000000001
    vertex 91.57417482712317 118.98567153801636 30.10000000000009
    vertex 92.05093069491684 119.60699188157602 30.100000000000062
  endloop
endfacet
facet normal -6.9649555871007345e-15 5.272567345549561e-14 1.0
  outer loop
    vertex 91.38470613614169 120.58935379137097 30.10000000000001
    vertex 92.05093069491684 119.60699188157602 30.100000000000062
    vertex 91.45285448356356 121.10699188157602 30.09999999999998
  endloop
endfacet
facet normal -6.9649555871007345e-15 5.272567345549561e-14 1.0
  outer loop
    vertex 91.45285448356356 121.10699188157602 30.09999999999998
    vertex 92.05093069491684 119.60699188157602 30.100000000000062
    vertex 91.3847061361417 121.62462997178106 30.09999999999995
  endloop
endfacet
facet normal -6.9649555871007345e-15 5.272567345549561e-14 1.0
  outer loop
    vertex 86.85477827221027 122.60699188157608 30.099999999999866
    vertex 87.45285448356356 121.10699188157608 30.09999999999995
    vertex 87.33153414000395 123.22831222513574 30.099999999999838
  endloop
endfacet
facet normal -6.9649555871007345e-15 5.272567345549561e-14 1.0
  outer loop
    vertex 87.45285448356356 121.10699188157608 30.09999999999995
    vertex 86.85477827221027 122.60699188157608 30.099999999999866
    vertex 87.52100283098541 120.58935379137104 30.09999999999998
  endloop
endfacet
facet normal -6.9649555871007345e-15 5.272567345549561e-14 1.0
  outer loop
    vertex 87.33153414000395 123.22831222513574 30.099999999999838
    vertex 87.45285448356356 121.10699188157608 30.09999999999995
    vertex 87.52100283098542 121.62462997178113 30.099999999999923
  endloop
endfacet
facet normal -6.9649555871007345e-15 5.272567345549561e-14 1.0
  outer loop
    vertex 87.33153414000395 123.22831222513574 30.099999999999838
    vertex 87.52100283098542 121.62462997178113 30.099999999999923
    vertex 87.72080367599469 122.10699188157608 30.0999999999999
  endloop
endfacet
facet normal -6.9649555871007345e-15 5.272567345549561e-14 1.0
  outer loop
    vertex 87.33153414000395 123.22831222513574 30.099999999999838
    vertex 87.72080367599469 122.10699188157608 30.0999999999999
    vertex 87.9528544835636 123.70506809292938 30.099999999999817
  endloop
endfacet
facet normal -6.9649555871007345e-15 5.272567345549561e-14 1.0
  outer loop
    vertex 87.9528544835636 123.70506809292938 30.099999999999817
    vertex 87.72080367599469 122.10699188157608 30.0999999999999
    vertex 88.03864092119049 122.52120544394916 30.099999999999877
  endloop
endfacet
facet normal -6.9649555871007345e-15 5.272567345549561e-14 1.0
  outer loop
    vertex 87.9528544835636 123.70506809292938 30.099999999999817
    vertex 88.03864092119049 122.52120544394916 30.099999999999877
    vertex 88.45285448356357 122.83904268914495 30.099999999999866
  endloop
endfacet
facet normal -6.9649555871007345e-15 5.272567345549561e-14 1.0
  outer loop
    vertex 87.9528544835636 123.70506809292938 30.099999999999817
    vertex 88.45285448356357 122.83904268914495 30.099999999999866
    vertex 88.67639734825605 124.00476936044326 30.099999999999802
  endloop
endfacet
facet normal -6.9649555871007345e-15 5.272567345549561e-14 1.0
  outer loop
    vertex 88.67639734825605 124.00476936044326 30.099999999999802
    vertex 88.45285448356357 122.83904268914495 30.099999999999866
    vertex 88.93521639335854 123.03884353415421 30.09999999999986
  endloop
endfacet
facet normal -6.9649555871007345e-15 5.272567345549561e-14 1.0
  outer loop
    vertex 88.67639734825605 124.00476936044326 30.099999999999802
    vertex 88.93521639335854 123.03884353415421 30.09999999999986
    vertex 89.45285448356358 123.10699188157606 30.09999999999986
  endloop
endfacet
facet normal -6.9649555871007345e-15 5.272567345549561e-14 1.0
  outer loop
    vertex 88.67639734825605 124.00476936044326 30.099999999999802
    vertex 89.45285448356358 123.10699188157606 30.09999999999986
    vertex 89.45285448356361 124.10699188157605 30.099999999999802
  endloop
endfacet
facet normal -6.9649555871007345e-15 5.272567345549561e-14 1.0
  outer loop
    vertex 89.45285448356361 124.10699188157605 30.099999999999802
    vertex 89.45285448356358 123.10699188157606 30.09999999999986
    vertex 89.97049257376862 123.03884353415418 30.099999999999866
  endloop
endfacet
facet normal -6.9649555871007345e-15 5.272567345549561e-14 1.0
  outer loop
    vertex 89.45285448356361 124.10699188157605 30.099999999999802
    vertex 89.97049257376862 123.03884353415418 30.099999999999866
    vertex 90.22931161887115 124.00476936044325 30.099999999999817
  endloop
endfacet
facet normal -6.9649555871007345e-15 5.272567345549561e-14 1.0
  outer loop
    vertex 90.22931161887115 124.00476936044325 30.099999999999817
    vertex 89.97049257376862 123.03884353415418 30.099999999999866
    vertex 90.45285448356358 122.8390426891449 30.099999999999877
  endloop
endfacet
facet normal -6.9649555871007345e-15 5.272567345549561e-14 1.0
  outer loop
    vertex 90.22931161887115 124.00476936044325 30.099999999999817
    vertex 90.45285448356358 122.8390426891449 30.099999999999877
    vertex 90.86706804593668 122.52120544394914 30.0999999999999
  endloop
endfacet
facet normal -6.9649555871007345e-15 5.272567345549561e-14 1.0
  outer loop
    vertex 90.22931161887115 124.00476936044325 30.099999999999817
    vertex 90.86706804593668 122.52120544394914 30.0999999999999
    vertex 90.9528544835636 123.70506809292934 30.099999999999838
  endloop
endfacet
facet normal -6.9649555871007345e-15 5.272567345549561e-14 1.0
  outer loop
    vertex 90.9528544835636 123.70506809292934 30.099999999999838
    vertex 90.86706804593668 122.52120544394914 30.0999999999999
    vertex 91.18490529113245 122.10699188157604 30.099999999999923
  endloop
endfacet
facet normal -6.9649555871007345e-15 5.272567345549561e-14 1.0
  outer loop
    vertex 90.9528544835636 123.70506809292934 30.099999999999838
    vertex 91.18490529113245 122.10699188157604 30.099999999999923
    vertex 91.3847061361417 121.62462997178106 30.09999999999995
  endloop
endfacet
facet normal -6.9649555871007345e-15 5.272567345549561e-14 1.0
  outer loop
    vertex 90.9528544835636 123.70506809292934 30.099999999999838
    vertex 91.3847061361417 121.62462997178106 30.09999999999995
    vertex 92.05093069491684 119.60699188157602 30.100000000000062
  endloop
endfacet
facet normal -6.9649555871007345e-15 5.272567345549561e-14 1.0
  outer loop
    vertex 90.9528544835636 123.70506809292934 30.099999999999838
    vertex 92.05093069491684 119.60699188157602 30.100000000000062
    vertex 92.35063196243074 120.33053474626844 30.100000000000023
  endloop
endfacet
facet normal -6.9649555871007345e-15 5.272567345549561e-14 1.0
  outer loop
    vertex 90.9528544835636 123.70506809292934 30.099999999999838
    vertex 92.35063196243074 120.33053474626844 30.100000000000023
    vertex 91.57417482712323 123.22831222513567 30.099999999999866
  endloop
endfacet
facet normal -6.9649555871007345e-15 5.272567345549561e-14 1.0
  outer loop
    vertex 91.57417482712323 123.22831222513567 30.099999999999866
    vertex 92.35063196243074 120.33053474626844 30.100000000000023
    vertex 92.45285448356356 121.10699188157602 30.099999999999984
  endloop
endfacet
facet normal -6.9649555871007345e-15 5.272567345549561e-14 1.0
  outer loop
    vertex 91.57417482712323 123.22831222513567 30.099999999999866
    vertex 92.45285448356356 121.10699188157602 30.099999999999984
    vertex 92.0509306949169 122.60699188157601 30.099999999999905
  endloop
endfacet
facet normal -6.9649555871007345e-15 5.272567345549561e-14 1.0
  outer loop
    vertex 92.0509306949169 122.60699188157601 30.099999999999905
    vertex 92.45285448356356 121.10699188157602 30.099999999999984
    vertex 92.35063196243077 121.88344901688357 30.099999999999945
  endloop
endfacet
facet normal -0.793353340291223 0.6087614290087368 -3.762302709822191e-14
  outer loop
    vertex 88.03864092119049 122.52120544394916 30.099999999999877
    vertex 87.72080367599469 122.10699188157612 31.0999999999999
    vertex 88.03864092119048 122.52120544394923 31.099999999999877
  endloop
endfacet
facet normal -0.793353340291223 0.6087614290087368 -3.762302709822191e-14
  outer loop
    vertex 87.72080367599469 122.10699188157612 31.0999999999999
    vertex 88.03864092119049 122.52120544394916 30.099999999999877
    vertex 87.72080367599469 122.10699188157608 30.0999999999999
  endloop
endfacet
facet normal -0.3826834323650979 -0.9238795325112835 4.6046797433063697e-14
  outer loop
    vertex 88.45285448356353 119.3749410740072 30.100000000000048
    vertex 88.93521639335849 119.17514022899799 31.100000000000062
    vertex 88.45285448356353 119.37494107400724 31.100000000000044
  endloop
endfacet
facet normal -0.3826834323650979 -0.9238795325112835 4.6046797433063697e-14
  outer loop
    vertex 88.93521639335849 119.17514022899799 31.100000000000062
    vertex 88.45285448356353 119.3749410740072 30.100000000000048
    vertex 88.93521639335849 119.17514022899792 30.100000000000062
  endloop
endfacet
facet normal 0.3826834323650978 0.9238795325112834 -4.6046797433063697e-14
  outer loop
    vertex 90.45285448356358 122.8390426891449 30.099999999999877
    vertex 89.97049257376862 123.03884353415422 31.099999999999863
    vertex 90.45285448356357 122.83904268914497 31.099999999999877
  endloop
endfacet
facet normal 0.3826834323650978 0.9238795325112834 -4.6046797433063697e-14
  outer loop
    vertex 89.97049257376862 123.03884353415422 31.099999999999863
    vertex 90.45285448356358 122.8390426891449 30.099999999999877
    vertex 89.97049257376862 123.03884353415418 30.099999999999866
  endloop
endfacet
facet normal -0.13052619222007164 -0.9914448613738079 5.1365488878158336e-14
  outer loop
    vertex 88.93521639335849 119.17514022899792 30.100000000000062
    vertex 89.45285448356351 119.1069918815761 31.100000000000065
    vertex 88.93521639335849 119.17514022899799 31.100000000000062
  endloop
endfacet
facet normal -0.13052619222007164 -0.9914448613738079 5.1365488878158336e-14
  outer loop
    vertex 89.45285448356351 119.1069918815761 31.100000000000065
    vertex 88.93521639335849 119.17514022899792 30.100000000000062
    vertex 89.45285448356353 119.10699188157604 30.10000000000007
  endloop
endfacet
facet normal 0.130526192220038 -0.9914448613738122 5.318370714169067e-14
  outer loop
    vertex 89.45285448356353 119.10699188157604 30.10000000000007
    vertex 89.97049257376857 119.17514022899796 31.100000000000065
    vertex 89.45285448356351 119.1069918815761 31.100000000000065
  endloop
endfacet
facet normal 0.130526192220038 -0.9914448613738122 5.318370714169067e-14
  outer loop
    vertex 89.97049257376857 119.17514022899796 31.100000000000065
    vertex 89.45285448356353 119.10699188157604 30.10000000000007
    vertex 89.97049257376858 119.17514022899789 30.10000000000007
  endloop
endfacet
facet normal 0.3826834323650756 -0.9238795325112926 5.1377543653748374e-14
  outer loop
    vertex 89.97049257376858 119.17514022899789 30.10000000000007
    vertex 90.45285448356353 119.37494107400721 31.100000000000062
    vertex 89.97049257376857 119.17514022899796 31.100000000000065
  endloop
endfacet
facet normal 0.3826834323650756 -0.9238795325112926 5.1377543653748374e-14
  outer loop
    vertex 90.45285448356353 119.37494107400721 31.100000000000062
    vertex 89.97049257376858 119.17514022899789 30.10000000000007
    vertex 90.45285448356354 119.37494107400715 30.100000000000062
  endloop
endfacet
facet normal -0.9238795325112825 0.38268343236510016 -2.6612021603482987e-14
  outer loop
    vertex 87.52100283098542 121.62462997178113 30.099999999999923
    vertex 87.72080367599469 122.10699188157612 31.0999999999999
    vertex 87.72080367599469 122.10699188157608 30.0999999999999
  endloop
endfacet
facet normal -0.9238795325112825 0.38268343236510016 -2.6612021603482987e-14
  outer loop
    vertex 87.72080367599469 122.10699188157612 31.0999999999999
    vertex 87.52100283098542 121.62462997178113 30.099999999999923
    vertex 87.52100283098542 121.62462997178118 31.09999999999992
  endloop
endfacet
facet normal 0.6087614290087138 -0.7933533402912406 4.6070085471208306e-14
  outer loop
    vertex 90.45285448356354 119.37494107400715 30.100000000000062
    vertex 90.86706804593663 119.69277831920299 31.100000000000044
    vertex 90.45285448356353 119.37494107400721 31.100000000000062
  endloop
endfacet
facet normal 0.6087614290087138 -0.7933533402912406 4.6070085471208306e-14
  outer loop
    vertex 90.86706804593663 119.69277831920299 31.100000000000044
    vertex 90.45285448356354 119.37494107400715 30.100000000000062
    vertex 90.86706804593663 119.69277831920294 30.100000000000048
  endloop
endfacet
facet normal -0.793353340291243 -0.6087614290087104 2.6571685538207617e-14
  outer loop
    vertex 88.03864092119045 119.69277831920299 30.10000000000003
    vertex 87.72080367599465 120.10699188157614 31.100000000000005
    vertex 87.72080367599466 120.10699188157606 30.10000000000001
  endloop
endfacet
facet normal -0.793353340291243 -0.6087614290087104 2.6571685538207617e-14
  outer loop
    vertex 87.72080367599465 120.10699188157614 31.100000000000005
    vertex 88.03864092119045 119.69277831920299 30.10000000000003
    vertex 88.03864092119044 119.69277831920303 31.100000000000026
  endloop
endfacet
facet normal -0.9914448613738123 -0.1305261922200377 -2.3288038144890228e-17
  outer loop
    vertex 87.52100283098541 120.58935379137104 30.09999999999998
    vertex 87.45285448356354 121.10699188157614 31.099999999999948
    vertex 87.45285448356356 121.10699188157608 30.09999999999995
  endloop
endfacet
facet normal -0.9914448613738123 -0.1305261922200377 -2.3288038144890228e-17
  outer loop
    vertex 87.45285448356354 121.10699188157614 31.099999999999948
    vertex 87.52100283098541 120.58935379137104 30.09999999999998
    vertex 87.52100283098541 120.58935379137108 31.099999999999977
  endloop
endfacet
facet normal -0.3826834323650756 0.9238795325112926 -5.1377543653748374e-14
  outer loop
    vertex 88.93521639335854 123.03884353415421 30.09999999999986
    vertex 88.45285448356357 122.83904268914499 31.099999999999863
    vertex 88.93521639335854 123.03884353415425 31.09999999999986
  endloop
endfacet
facet normal -0.3826834323650756 0.9238795325112926 -5.1377543653748374e-14
  outer loop
    vertex 88.45285448356357 122.83904268914499 31.099999999999863
    vertex 88.93521639335854 123.03884353415421 30.09999999999986
    vertex 88.45285448356357 122.83904268914495 30.099999999999866
  endloop
endfacet
facet normal 0.1305261922200717 0.9914448613738079 -5.1365488878158336e-14
  outer loop
    vertex 89.97049257376862 123.03884353415418 30.099999999999866
    vertex 89.45285448356358 123.1069918815761 31.09999999999986
    vertex 89.97049257376862 123.03884353415422 31.099999999999863
  endloop
endfacet
facet normal 0.1305261922200717 0.9914448613738079 -5.1365488878158336e-14
  outer loop
    vertex 89.45285448356358 123.1069918815761 31.09999999999986
    vertex 89.97049257376862 123.03884353415418 30.099999999999866
    vertex 89.45285448356358 123.10699188157606 30.09999999999986
  endloop
endfacet
facet normal -0.13052619222003806 0.9914448613738122 -5.318370714169067e-14
  outer loop
    vertex 89.45285448356358 123.10699188157606 30.09999999999986
    vertex 88.93521639335854 123.03884353415425 31.09999999999986
    vertex 89.45285448356358 123.1069918815761 31.09999999999986
  endloop
endfacet
facet normal -0.13052619222003806 0.9914448613738122 -5.318370714169067e-14
  outer loop
    vertex 88.93521639335854 123.03884353415425 31.09999999999986
    vertex 89.45285448356358 123.10699188157606 30.09999999999986
    vertex 88.93521639335854 123.03884353415421 30.09999999999986
  endloop
endfacet
facet normal -0.6087614290087118 0.793353340291242 -4.607008547120837e-14
  outer loop
    vertex 88.45285448356357 122.83904268914495 30.099999999999866
    vertex 88.03864092119048 122.52120544394923 31.099999999999877
    vertex 88.45285448356357 122.83904268914499 31.099999999999863
  endloop
endfacet
facet normal -0.6087614290087118 0.793353340291242 -4.607008547120837e-14
  outer loop
    vertex 88.03864092119048 122.52120544394923 31.099999999999877
    vertex 88.45285448356357 122.83904268914495 30.099999999999866
    vertex 88.03864092119049 122.52120544394916 30.099999999999877
  endloop
endfacet
facet normal -0.9914448613738084 0.13052619222006756 -1.3787450814912357e-14
  outer loop
    vertex 87.45285448356356 121.10699188157608 30.09999999999995
    vertex 87.52100283098542 121.62462997178118 31.09999999999992
    vertex 87.52100283098542 121.62462997178113 30.099999999999923
  endloop
endfacet
facet normal -0.9914448613738084 0.13052619222006756 -1.3787450814912357e-14
  outer loop
    vertex 87.52100283098542 121.62462997178118 31.09999999999992
    vertex 87.45285448356356 121.10699188157608 30.09999999999995
    vertex 87.45285448356354 121.10699188157614 31.099999999999948
  endloop
endfacet
facet normal -0.9238795325112924 -0.3826834323650763 1.3742461779936708e-14
  outer loop
    vertex 87.72080367599466 120.10699188157606 30.10000000000001
    vertex 87.52100283098541 120.58935379137108 31.099999999999977
    vertex 87.52100283098541 120.58935379137104 30.09999999999998
  endloop
endfacet
facet normal -0.9238795325112924 -0.3826834323650763 1.3742461779936708e-14
  outer loop
    vertex 87.52100283098541 120.58935379137108 31.099999999999977
    vertex 87.72080367599466 120.10699188157606 30.10000000000001
    vertex 87.72080367599465 120.10699188157614 31.100000000000005
  endloop
endfacet
facet normal -0.6087614290087349 -0.7933533402912243 3.759009283883596e-14
  outer loop
    vertex 88.45285448356353 119.3749410740072 30.100000000000048
    vertex 88.03864092119044 119.69277831920303 31.100000000000026
    vertex 88.03864092119045 119.69277831920299 30.10000000000003
  endloop
endfacet
facet normal -0.6087614290087349 -0.7933533402912243 3.759009283883596e-14
  outer loop
    vertex 88.03864092119044 119.69277831920303 31.100000000000026
    vertex 88.45285448356353 119.3749410740072 30.100000000000048
    vertex 88.45285448356353 119.37494107400724 31.100000000000044
  endloop
endfacet
facet normal 6.964955587100734e-15 -5.272567345549561e-14 -1.0
  outer loop
    vertex 86.45285448356357 121.10699188157602 28.599999999999948
    vertex 86.85477827221023 119.60699188157602 28.600000000000026
    vertex 86.55507700469634 120.33053474626846 28.599999999999987
  endloop
endfacet
facet normal 6.964955587100734e-15 -5.272567345549561e-14 -1.0
  outer loop
    vertex 86.85477827221023 119.60699188157602 28.600000000000026
    vertex 86.45285448356357 121.10699188157602 28.599999999999948
    vertex 86.55507700469637 121.88344901688357 28.59999999999991
  endloop
endfacet
facet normal 6.964955587100734e-15 -5.272567345549561e-14 -1.0
  outer loop
    vertex 86.85477827221023 119.60699188157602 28.600000000000026
    vertex 86.55507700469637 121.88344901688357 28.59999999999991
    vertex 87.3315341400039 118.98567153801636 28.600000000000065
  endloop
endfacet
facet normal 6.964955587100734e-15 -5.272567345549561e-14 -1.0
  outer loop
    vertex 87.3315341400039 118.98567153801636 28.600000000000065
    vertex 86.55507700469637 121.88344901688357 28.59999999999991
    vertex 86.85477827221027 122.60699188157601 28.59999999999987
  endloop
endfacet
facet normal 6.964955587100734e-15 -5.272567345549561e-14 -1.0
  outer loop
    vertex 87.3315341400039 118.98567153801636 28.600000000000065
    vertex 86.85477827221027 122.60699188157601 28.59999999999987
    vertex 87.95285448356353 118.50891567022268 28.600000000000094
  endloop
endfacet
facet normal 6.964955587100734e-15 -5.272567345549561e-14 -1.0
  outer loop
    vertex 87.95285448356353 118.50891567022268 28.600000000000094
    vertex 86.85477827221027 122.60699188157601 28.59999999999987
    vertex 87.33153414000397 123.22831222513564 28.59999999999984
  endloop
endfacet
facet normal 6.964955587100734e-15 -5.272567345549561e-14 -1.0
  outer loop
    vertex 87.95285448356353 118.50891567022268 28.600000000000094
    vertex 87.33153414000397 123.22831222513564 28.59999999999984
    vertex 88.67639734825596 118.2092144027088 28.600000000000115
  endloop
endfacet
facet normal 6.964955587100734e-15 -5.272567345549561e-14 -1.0
  outer loop
    vertex 88.67639734825596 118.2092144027088 28.600000000000115
    vertex 87.33153414000397 123.22831222513564 28.59999999999984
    vertex 89.45285448356351 118.10699188157598 28.600000000000122
  endloop
endfacet
facet normal 6.964955587100734e-15 -5.272567345549561e-14 -1.0
  outer loop
    vertex 89.45285448356351 118.10699188157598 28.600000000000122
    vertex 87.33153414000397 123.22831222513564 28.59999999999984
    vertex 87.95285448356361 123.70506809292932 28.599999999999817
  endloop
endfacet
facet normal 6.964955587100734e-15 -5.272567345549561e-14 -1.0
  outer loop
    vertex 89.45285448356351 118.10699188157598 28.600000000000122
    vertex 87.95285448356361 123.70506809292932 28.599999999999817
    vertex 90.22931161887108 118.20921440270877 28.600000000000122
  endloop
endfacet
facet normal 6.964955587100734e-15 -5.272567345549561e-14 -1.0
  outer loop
    vertex 90.22931161887108 118.20921440270877 28.600000000000122
    vertex 87.95285448356361 123.70506809292932 28.599999999999817
    vertex 88.67639734825605 124.00476936044319 28.599999999999806
  endloop
endfacet
facet normal 6.964955587100734e-15 -5.272567345549561e-14 -1.0
  outer loop
    vertex 90.22931161887108 118.20921440270877 28.600000000000122
    vertex 88.67639734825605 124.00476936044319 28.599999999999806
    vertex 89.45285448356363 124.10699188157596 28.599999999999806
  endloop
endfacet
facet normal 6.964955587100734e-15 -5.272567345549561e-14 -1.0
  outer loop
    vertex 90.22931161887108 118.20921440270877 28.600000000000122
    vertex 89.45285448356363 124.10699188157596 28.599999999999806
    vertex 90.95285448356353 118.50891567022262 28.600000000000115
  endloop
endfacet
facet normal 6.964955587100734e-15 -5.272567345549561e-14 -1.0
  outer loop
    vertex 90.95285448356353 118.50891567022262 28.600000000000115
    vertex 89.45285448356363 124.10699188157596 28.599999999999806
    vertex 91.57417482712317 118.9856715380163 28.600000000000094
  endloop
endfacet
facet normal 6.964955587100734e-15 -5.272567345549561e-14 -1.0
  outer loop
    vertex 91.57417482712317 118.9856715380163 28.600000000000094
    vertex 89.45285448356363 124.10699188157596 28.599999999999806
    vertex 90.22931161887117 124.00476936044315 28.599999999999817
  endloop
endfacet
facet normal 6.964955587100734e-15 -5.272567345549561e-14 -1.0
  outer loop
    vertex 91.57417482712317 118.9856715380163 28.600000000000094
    vertex 90.22931161887117 124.00476936044315 28.599999999999817
    vertex 90.95285448356361 123.70506809292927 28.59999999999984
  endloop
endfacet
facet normal 6.964955587100734e-15 -5.272567345549561e-14 -1.0
  outer loop
    vertex 91.57417482712317 118.9856715380163 28.600000000000094
    vertex 90.95285448356361 123.70506809292927 28.59999999999984
    vertex 92.05093069491686 119.60699188157592 28.600000000000065
  endloop
endfacet
facet normal 6.964955587100734e-15 -5.272567345549561e-14 -1.0
  outer loop
    vertex 92.05093069491686 119.60699188157592 28.600000000000065
    vertex 90.95285448356361 123.70506809292927 28.59999999999984
    vertex 92.35063196243075 120.33053474626837 28.600000000000026
  endloop
endfacet
facet normal 6.964955587100734e-15 -5.272567345549561e-14 -1.0
  outer loop
    vertex 92.35063196243075 120.33053474626837 28.600000000000026
    vertex 90.95285448356361 123.70506809292927 28.59999999999984
    vertex 91.57417482712323 123.22831222513557 28.59999999999987
  endloop
endfacet
facet normal 6.964955587100734e-15 -5.272567345549561e-14 -1.0
  outer loop
    vertex 92.35063196243075 120.33053474626837 28.600000000000026
    vertex 91.57417482712323 123.22831222513557 28.59999999999987
    vertex 92.05093069491691 122.60699188157592 28.59999999999991
  endloop
endfacet
facet normal 6.964955587100734e-15 -5.272567345549561e-14 -1.0
  outer loop
    vertex 92.35063196243075 120.33053474626837 28.600000000000026
    vertex 92.05093069491691 122.60699188157592 28.59999999999991
    vertex 92.45285448356357 121.10699188157592 28.599999999999987
  endloop
endfacet
facet normal 6.964955587100734e-15 -5.272567345549561e-14 -1.0
  outer loop
    vertex 92.45285448356357 121.10699188157592 28.599999999999987
    vertex 92.05093069491691 122.60699188157592 28.59999999999991
    vertex 92.35063196243078 121.88344901688349 28.599999999999948
  endloop
endfacet
facet normal 0.9914448613738078 -0.13052619222007097 1.3787450814912529e-14
  outer loop
    vertex 92.35063196243074 120.33053474626844 30.100000000000023
    vertex 92.45285448356357 121.10699188157592 28.599999999999987
    vertex 92.45285448356356 121.10699188157602 30.099999999999984
  endloop
endfacet
facet normal 0.9914448613738078 -0.13052619222007097 1.3787450814912529e-14
  outer loop
    vertex 92.45285448356357 121.10699188157592 28.599999999999987
    vertex 92.35063196243074 120.33053474626844 30.100000000000023
    vertex 92.35063196243075 120.33053474626837 28.600000000000026
  endloop
endfacet
facet normal 0.38268343236507724 -0.9238795325112918 5.137754365374834e-14
  outer loop
    vertex 90.22931161887108 118.20921440270877 28.600000000000122
    vertex 90.95285448356351 118.50891567022272 30.100000000000115
    vertex 90.22931161887108 118.20921440270884 30.10000000000012
  endloop
endfacet
facet normal 0.38268343236507724 -0.9238795325112918 5.137754365374834e-14
  outer loop
    vertex 90.95285448356351 118.50891567022272 30.100000000000115
    vertex 90.22931161887108 118.20921440270877 28.600000000000122
    vertex 90.95285448356353 118.50891567022262 28.600000000000115
  endloop
endfacet
facet normal -0.130526192220069 -0.9914448613738082 5.136548887815837e-14
  outer loop
    vertex 88.67639734825596 118.2092144027088 28.600000000000115
    vertex 89.45285448356351 118.10699188157605 30.10000000000012
    vertex 88.67639734825595 118.20921440270885 30.100000000000115
  endloop
endfacet
facet normal -0.130526192220069 -0.9914448613738082 5.136548887815837e-14
  outer loop
    vertex 89.45285448356351 118.10699188157605 30.10000000000012
    vertex 88.67639734825596 118.2092144027088 28.600000000000115
    vertex 89.45285448356351 118.10699188157598 28.600000000000122
  endloop
endfacet
facet normal -0.38268343236507724 0.9238795325112918 -5.137754365374834e-14
  outer loop
    vertex 88.67639734825605 124.00476936044319 28.599999999999806
    vertex 87.9528544835636 123.70506809292938 30.099999999999817
    vertex 88.67639734825605 124.00476936044326 30.099999999999802
  endloop
endfacet
facet normal -0.38268343236507724 0.9238795325112918 -5.137754365374834e-14
  outer loop
    vertex 87.9528544835636 123.70506809292938 30.099999999999817
    vertex 88.67639734825605 124.00476936044319 28.599999999999806
    vertex 87.95285448356361 123.70506809292932 28.599999999999817
  endloop
endfacet
facet normal 0.7933533402912265 -0.608761429008732 3.762302709822169e-14
  outer loop
    vertex 91.57417482712317 118.9856715380163 28.600000000000094
    vertex 92.05093069491684 119.60699188157602 30.100000000000062
    vertex 91.57417482712317 118.98567153801636 30.10000000000009
  endloop
endfacet
facet normal 0.7933533402912265 -0.608761429008732 3.762302709822169e-14
  outer loop
    vertex 92.05093069491684 119.60699188157602 30.100000000000062
    vertex 91.57417482712317 118.9856715380163 28.600000000000094
    vertex 92.05093069491686 119.60699188157592 28.600000000000065
  endloop
endfacet
facet normal -0.3826834323651047 -0.9238795325112807 4.60467974330635e-14
  outer loop
    vertex 87.95285448356353 118.50891567022268 28.600000000000094
    vertex 88.67639734825595 118.20921440270885 30.100000000000115
    vertex 87.95285448356353 118.50891567022276 30.10000000000009
  endloop
endfacet
facet normal -0.3826834323651047 -0.9238795325112807 4.60467974330635e-14
  outer loop
    vertex 88.67639734825595 118.20921440270885 30.100000000000115
    vertex 87.95285448356353 118.50891567022268 28.600000000000094
    vertex 88.67639734825596 118.2092144027088 28.600000000000115
  endloop
endfacet
facet normal 0.923879532511295 0.3826834323650701 -1.3742461779936366e-14
  outer loop
    vertex 92.35063196243077 121.88344901688357 30.099999999999945
    vertex 92.05093069491691 122.60699188157592 28.59999999999991
    vertex 92.0509306949169 122.60699188157601 30.099999999999905
  endloop
endfacet
facet normal 0.923879532511295 0.3826834323650701 -1.3742461779936366e-14
  outer loop
    vertex 92.05093069491691 122.60699188157592 28.59999999999991
    vertex 92.35063196243077 121.88344901688357 30.099999999999945
    vertex 92.35063196243078 121.88344901688349 28.599999999999948
  endloop
endfacet
facet normal -0.6087614290087312 -0.7933533402912272 3.759009283883614e-14
  outer loop
    vertex 87.95285448356353 118.50891567022268 28.600000000000094
    vertex 87.33153414000388 118.98567153801643 30.100000000000062
    vertex 87.3315341400039 118.98567153801636 28.600000000000065
  endloop
endfacet
facet normal -0.6087614290087312 -0.7933533402912272 3.759009283883614e-14
  outer loop
    vertex 87.33153414000388 118.98567153801643 30.100000000000062
    vertex 87.95285448356353 118.50891567022268 28.600000000000094
    vertex 87.95285448356353 118.50891567022276 30.10000000000009
  endloop
endfacet
facet normal -0.9238795325112922 -0.3826834323650766 1.3742461779936733e-14
  outer loop
    vertex 86.85477827221023 119.60699188157602 28.600000000000026
    vertex 86.55507700469633 120.33053474626853 30.099999999999984
    vertex 86.55507700469634 120.33053474626846 28.599999999999987
  endloop
endfacet
facet normal -0.9238795325112922 -0.3826834323650766 1.3742461779936733e-14
  outer loop
    vertex 86.55507700469633 120.33053474626853 30.099999999999984
    vertex 86.85477827221023 119.60699188157602 28.600000000000026
    vertex 86.85477827221021 119.60699188157609 30.100000000000023
  endloop
endfacet
facet normal -0.9914448613738124 -0.13052619222003714 -2.3288038144919416e-17
  outer loop
    vertex 86.55507700469634 120.33053474626846 28.599999999999987
    vertex 86.45285448356356 121.10699188157608 30.099999999999945
    vertex 86.45285448356357 121.10699188157602 28.599999999999948
  endloop
endfacet
facet normal -0.9914448613738124 -0.13052619222003714 -2.3288038144919416e-17
  outer loop
    vertex 86.45285448356356 121.10699188157608 30.099999999999945
    vertex 86.55507700469634 120.33053474626846 28.599999999999987
    vertex 86.55507700469633 120.33053474626853 30.099999999999984
  endloop
endfacet
facet normal 0.6087614290087412 0.7933533402912196 -3.759009283883567e-14
  outer loop
    vertex 91.57417482712323 123.22831222513567 30.099999999999866
    vertex 90.95285448356361 123.70506809292927 28.59999999999984
    vertex 90.9528544835636 123.70506809292934 30.099999999999838
  endloop
endfacet
facet normal 0.6087614290087412 0.7933533402912196 -3.759009283883567e-14
  outer loop
    vertex 90.95285448356361 123.70506809292927 28.59999999999984
    vertex 91.57417482712323 123.22831222513567 30.099999999999866
    vertex 91.57417482712323 123.22831222513557 28.59999999999987
  endloop
endfacet
facet normal 0.3826834323650966 0.923879532511284 -4.6046797433063735e-14
  outer loop
    vertex 90.95285448356361 123.70506809292927 28.59999999999984
    vertex 90.22931161887115 124.00476936044325 30.099999999999817
    vertex 90.9528544835636 123.70506809292934 30.099999999999838
  endloop
endfacet
facet normal 0.3826834323650966 0.923879532511284 -4.6046797433063735e-14
  outer loop
    vertex 90.22931161887115 124.00476936044325 30.099999999999817
    vertex 90.95285448356361 123.70506809292927 28.59999999999984
    vertex 90.22931161887117 124.00476936044315 28.599999999999817
  endloop
endfacet
facet normal 0.13052619222003806 -0.9914448613738122 5.318370714169067e-14
  outer loop
    vertex 89.45285448356351 118.10699188157598 28.600000000000122
    vertex 90.22931161887108 118.20921440270884 30.10000000000012
    vertex 89.45285448356351 118.10699188157605 30.10000000000012
  endloop
endfacet
facet normal 0.13052619222003806 -0.9914448613738122 5.318370714169067e-14
  outer loop
    vertex 90.22931161887108 118.20921440270884 30.10000000000012
    vertex 89.45285448356351 118.10699188157598 28.600000000000122
    vertex 90.22931161887108 118.20921440270877 28.600000000000122
  endloop
endfacet
facet normal -0.793353340291245 -0.6087614290087078 2.6571685538207465e-14
  outer loop
    vertex 87.3315341400039 118.98567153801636 28.600000000000065
    vertex 86.85477827221021 119.60699188157609 30.100000000000023
    vertex 86.85477827221023 119.60699188157602 28.600000000000026
  endloop
endfacet
facet normal -0.793353340291245 -0.6087614290087078 2.6571685538207465e-14
  outer loop
    vertex 86.85477827221021 119.60699188157609 30.100000000000023
    vertex 87.3315341400039 118.98567153801636 28.600000000000065
    vertex 87.33153414000388 118.98567153801643 30.100000000000062
  endloop
endfacet
facet normal -0.9914448613738088 0.1305261922200643 -1.3787450814912187e-14
  outer loop
    vertex 86.45285448356357 121.10699188157602 28.599999999999948
    vertex 86.55507700469636 121.88344901688366 30.099999999999905
    vertex 86.55507700469637 121.88344901688357 28.59999999999991
  endloop
endfacet
facet normal -0.9914448613738088 0.1305261922200643 -1.3787450814912187e-14
  outer loop
    vertex 86.55507700469636 121.88344901688366 30.099999999999905
    vertex 86.45285448356357 121.10699188157602 28.599999999999948
    vertex 86.45285448356356 121.10699188157608 30.099999999999945
  endloop
endfacet
facet normal 0.13052619222007172 0.9914448613738078 -5.136548887815833e-14
  outer loop
    vertex 90.22931161887117 124.00476936044315 28.599999999999817
    vertex 89.45285448356361 124.10699188157605 30.099999999999802
    vertex 90.22931161887115 124.00476936044325 30.099999999999817
  endloop
endfacet
facet normal 0.13052619222007172 0.9914448613738078 -5.136548887815833e-14
  outer loop
    vertex 89.45285448356361 124.10699188157605 30.099999999999802
    vertex 90.22931161887117 124.00476936044315 28.599999999999817
    vertex 89.45285448356363 124.10699188157596 28.599999999999806
  endloop
endfacet
facet normal 0.7933533402912407 0.6087614290087137 -2.6571685538207806e-14
  outer loop
    vertex 92.0509306949169 122.60699188157601 30.099999999999905
    vertex 91.57417482712323 123.22831222513557 28.59999999999987
    vertex 91.57417482712323 123.22831222513567 30.099999999999866
  endloop
endfacet
facet normal 0.7933533402912407 0.6087614290087137 -2.6571685538207806e-14
  outer loop
    vertex 91.57417482712323 123.22831222513557 28.59999999999987
    vertex 92.0509306949169 122.60699188157601 30.099999999999905
    vertex 92.05093069491691 122.60699188157592 28.59999999999991
  endloop
endfacet
facet normal 0.9914448613738114 0.13052619222004444 2.3288038144526564e-17
  outer loop
    vertex 92.45285448356356 121.10699188157602 30.099999999999984
    vertex 92.35063196243078 121.88344901688349 28.599999999999948
    vertex 92.35063196243077 121.88344901688357 30.099999999999945
  endloop
endfacet
facet normal 0.9914448613738114 0.13052619222004444 2.3288038144526564e-17
  outer loop
    vertex 92.35063196243078 121.88344901688349 28.599999999999948
    vertex 92.45285448356356 121.10699188157602 30.099999999999984
    vertex 92.45285448356357 121.10699188157592 28.599999999999987
  endloop
endfacet
facet normal 0.9238795325112803 -0.38268343236510527 2.661202160348324e-14
  outer loop
    vertex 92.05093069491684 119.60699188157602 30.100000000000062
    vertex 92.35063196243075 120.33053474626837 28.600000000000026
    vertex 92.35063196243074 120.33053474626844 30.100000000000023
  endloop
endfacet
facet normal 0.9238795325112803 -0.38268343236510527 2.661202160348324e-14
  outer loop
    vertex 92.35063196243075 120.33053474626837 28.600000000000026
    vertex 92.05093069491684 119.60699188157602 30.100000000000062
    vertex 92.05093069491686 119.60699188157592 28.600000000000065
  endloop
endfacet
facet normal 0.6087614290087094 -0.7933533402912439 4.607008547120846e-14
  outer loop
    vertex 90.95285448356353 118.50891567022262 28.600000000000115
    vertex 91.57417482712317 118.98567153801636 30.10000000000009
    vertex 90.95285448356351 118.50891567022272 30.100000000000115
  endloop
endfacet
facet normal 0.6087614290087094 -0.7933533402912439 4.607008547120846e-14
  outer loop
    vertex 91.57417482712317 118.98567153801636 30.10000000000009
    vertex 90.95285448356353 118.50891567022262 28.600000000000115
    vertex 91.57417482712317 118.9856715380163 28.600000000000094
  endloop
endfacet
facet normal -0.13052619222003806 0.9914448613738122 -5.318370714169067e-14
  outer loop
    vertex 89.45285448356363 124.10699188157596 28.599999999999806
    vertex 88.67639734825605 124.00476936044326 30.099999999999802
    vertex 89.45285448356361 124.10699188157605 30.099999999999802
  endloop
endfacet
facet normal -0.13052619222003806 0.9914448613738122 -5.318370714169067e-14
  outer loop
    vertex 88.67639734825605 124.00476936044326 30.099999999999802
    vertex 89.45285448356363 124.10699188157596 28.599999999999806
    vertex 88.67639734825605 124.00476936044319 28.599999999999806
  endloop
endfacet
facet normal -0.608761429008708 0.7933533402912449 -4.6070085471208495e-14
  outer loop
    vertex 87.95285448356361 123.70506809292932 28.599999999999817
    vertex 87.33153414000395 123.22831222513574 30.099999999999838
    vertex 87.9528544835636 123.70506809292938 30.099999999999817
  endloop
endfacet
facet normal -0.608761429008708 0.7933533402912449 -4.6070085471208495e-14
  outer loop
    vertex 87.33153414000395 123.22831222513574 30.099999999999838
    vertex 87.95285448356361 123.70506809292932 28.599999999999817
    vertex 87.33153414000397 123.22831222513564 28.59999999999984
  endloop
endfacet
facet normal -0.7933533402912255 0.6087614290087332 -3.762302709822174e-14
  outer loop
    vertex 87.33153414000397 123.22831222513564 28.59999999999984
    vertex 86.85477827221027 122.60699188157608 30.099999999999866
    vertex 87.33153414000395 123.22831222513574 30.099999999999838
  endloop
endfacet
facet normal -0.7933533402912255 0.6087614290087332 -3.762302709822174e-14
  outer loop
    vertex 86.85477827221027 122.60699188157608 30.099999999999866
    vertex 87.33153414000397 123.22831222513564 28.59999999999984
    vertex 86.85477827221027 122.60699188157601 28.59999999999987
  endloop
endfacet
facet normal -0.9238795325112803 0.38268343236510527 -2.661202160348324e-14
  outer loop
    vertex 86.55507700469637 121.88344901688357 28.59999999999991
    vertex 86.85477827221027 122.60699188157608 30.099999999999866
    vertex 86.85477827221027 122.60699188157601 28.59999999999987
  endloop
endfacet
facet normal -0.9238795325112803 0.38268343236510527 -2.661202160348324e-14
  outer loop
    vertex 86.85477827221027 122.60699188157608 30.099999999999866
    vertex 86.55507700469637 121.88344901688357 28.59999999999991
    vertex 86.55507700469636 121.88344901688366 30.099999999999905
  endloop
endfacet
facet normal -6.9649555871007345e-15 5.272567345549561e-14 1.0
  outer loop
    vertex 89.01984178167132 120.85699188157614 31.59999999999997
    vertex 88.95285448356356 121.10699188157614 31.59999999999996
    vertex 88.96989157041901 120.97758235902488 31.599999999999966
  endloop
endfacet
facet normal -6.9649555871007345e-15 5.272567345549561e-14 1.0
  outer loop
    vertex 88.95285448356356 121.10699188157614 31.59999999999996
    vertex 89.01984178167132 120.85699188157614 31.59999999999997
    vertex 89.09930109297026 120.75343849098286 31.599999999999977
  endloop
endfacet
facet normal -6.9649555871007345e-15 5.272567345549561e-14 1.0
  outer loop
    vertex 88.95285448356356 121.10699188157614 31.59999999999996
    vertex 89.09930109297026 120.75343849098286 31.599999999999977
    vertex 88.96989157041901 121.23640140412739 31.59999999999995
  endloop
endfacet
facet normal -6.9649555871007345e-15 5.272567345549561e-14 1.0
  outer loop
    vertex 88.96989157041901 121.23640140412739 31.59999999999995
    vertex 89.09930109297026 120.75343849098286 31.599999999999977
    vertex 89.20285448356354 120.67397917968391 31.59999999999998
  endloop
endfacet
facet normal -6.9649555871007345e-15 5.272567345549561e-14 1.0
  outer loop
    vertex 88.96989157041901 121.23640140412739 31.59999999999995
    vertex 89.20285448356354 120.67397917968391 31.59999999999998
    vertex 89.01984178167132 121.35699188157614 31.59999999999994
  endloop
endfacet
facet normal -6.9649555871007345e-15 5.272567345549561e-14 1.0
  outer loop
    vertex 89.01984178167132 121.35699188157614 31.59999999999994
    vertex 89.20285448356354 120.67397917968391 31.59999999999998
    vertex 89.32344496101227 120.62402896843159 31.599999999999987
  endloop
endfacet
facet normal -6.9649555871007345e-15 5.272567345549561e-14 1.0
  outer loop
    vertex 89.01984178167132 121.35699188157614 31.59999999999994
    vertex 89.32344496101227 120.62402896843159 31.599999999999987
    vertex 89.09930109297028 121.4605452721694 31.59999999999994
  endloop
endfacet
facet normal -6.9649555871007345e-15 5.272567345549561e-14 1.0
  outer loop
    vertex 89.09930109297028 121.4605452721694 31.59999999999994
    vertex 89.32344496101227 120.62402896843159 31.599999999999987
    vertex 89.45285448356354 120.60699188157614 31.599999999999987
  endloop
endfacet
facet normal -6.9649555871007345e-15 5.272567345549561e-14 1.0
  outer loop
    vertex 89.09930109297028 121.4605452721694 31.59999999999994
    vertex 89.45285448356354 120.60699188157614 31.599999999999987
    vertex 89.20285448356356 121.54000458346835 31.599999999999937
  endloop
endfacet
facet normal -6.9649555871007345e-15 5.272567345549561e-14 1.0
  outer loop
    vertex 89.20285448356356 121.54000458346835 31.599999999999937
    vertex 89.45285448356354 120.60699188157614 31.599999999999987
    vertex 89.5822640061148 120.62402896843159 31.599999999999987
  endloop
endfacet
facet normal -6.9649555871007345e-15 5.272567345549561e-14 1.0
  outer loop
    vertex 89.20285448356356 121.54000458346835 31.599999999999937
    vertex 89.5822640061148 120.62402896843159 31.599999999999987
    vertex 89.3234449610123 121.58995479472067 31.599999999999937
  endloop
endfacet
facet normal -6.9649555871007345e-15 5.272567345549561e-14 1.0
  outer loop
    vertex 89.3234449610123 121.58995479472067 31.599999999999937
    vertex 89.5822640061148 120.62402896843159 31.599999999999987
    vertex 89.70285448356354 120.67397917968391 31.599999999999987
  endloop
endfacet
facet normal -6.9649555871007345e-15 5.272567345549561e-14 1.0
  outer loop
    vertex 89.3234449610123 121.58995479472067 31.599999999999937
    vertex 89.70285448356354 120.67397917968391 31.599999999999987
    vertex 89.45285448356356 121.60699188157612 31.599999999999937
  endloop
endfacet
facet normal -6.9649555871007345e-15 5.272567345549561e-14 1.0
  outer loop
    vertex 89.45285448356356 121.60699188157612 31.599999999999937
    vertex 89.70285448356354 120.67397917968391 31.599999999999987
    vertex 89.80640787415682 120.75343849098286 31.59999999999998
  endloop
endfacet
facet normal -6.9649555871007345e-15 5.272567345549561e-14 1.0
  outer loop
    vertex 89.45285448356356 121.60699188157612 31.599999999999937
    vertex 89.80640787415682 120.75343849098286 31.59999999999998
    vertex 89.58226400611481 121.58995479472067 31.599999999999937
  endloop
endfacet
facet normal -6.9649555871007345e-15 5.272567345549561e-14 1.0
  outer loop
    vertex 89.58226400611481 121.58995479472067 31.599999999999937
    vertex 89.80640787415682 120.75343849098286 31.59999999999998
    vertex 89.88586718545577 120.85699188157612 31.599999999999977
  endloop
endfacet
facet normal -6.9649555871007345e-15 5.272567345549561e-14 1.0
  outer loop
    vertex 89.58226400611481 121.58995479472067 31.599999999999937
    vertex 89.88586718545577 120.85699188157612 31.599999999999977
    vertex 89.70285448356356 121.54000458346835 31.59999999999994
  endloop
endfacet
facet normal -6.9649555871007345e-15 5.272567345549561e-14 1.0
  outer loop
    vertex 89.70285448356356 121.54000458346835 31.59999999999994
    vertex 89.88586718545577 120.85699188157612 31.599999999999977
    vertex 89.93581739670807 120.97758235902486 31.59999999999997
  endloop
endfacet
facet normal -6.9649555871007345e-15 5.272567345549561e-14 1.0
  outer loop
    vertex 89.70285448356356 121.54000458346835 31.59999999999994
    vertex 89.93581739670807 120.97758235902486 31.59999999999997
    vertex 89.80640787415683 121.4605452721694 31.59999999999994
  endloop
endfacet
facet normal -6.9649555871007345e-15 5.272567345549561e-14 1.0
  outer loop
    vertex 89.80640787415683 121.4605452721694 31.59999999999994
    vertex 89.93581739670807 120.97758235902486 31.59999999999997
    vertex 89.95285448356354 121.10699188157614 31.599999999999966
  endloop
endfacet
facet normal -6.9649555871007345e-15 5.272567345549561e-14 1.0
  outer loop
    vertex 89.80640787415683 121.4605452721694 31.59999999999994
    vertex 89.95285448356354 121.10699188157614 31.599999999999966
    vertex 89.88586718545577 121.35699188157612 31.59999999999995
  endloop
endfacet
facet normal -6.9649555871007345e-15 5.272567345549561e-14 1.0
  outer loop
    vertex 89.88586718545577 121.35699188157612 31.59999999999995
    vertex 89.95285448356354 121.10699188157614 31.599999999999966
    vertex 89.93581739670809 121.23640140412738 31.59999999999996
  endloop
endfacet
facet normal 0.7933533402912515 0.6087614290086992 -2.6571685538206967e-14
  outer loop
    vertex 89.88586718545577 121.35699188157612 31.59999999999995
    vertex 89.80640787415683 121.46054527216938 31.099999999999948
    vertex 89.80640787415683 121.4605452721694 31.59999999999994
  endloop
endfacet
facet normal 0.7933533402912515 0.6087614290086992 -2.6571685538206967e-14
  outer loop
    vertex 89.80640787415683 121.46054527216938 31.099999999999948
    vertex 89.88586718545577 121.35699188157612 31.59999999999995
    vertex 89.88586718545577 121.35699188157609 31.099999999999955
  endloop
endfacet
facet normal 0.6087614290087485 0.7933533402912138 -3.759009283883532e-14
  outer loop
    vertex 89.80640787415683 121.4605452721694 31.59999999999994
    vertex 89.70285448356356 121.54000458346832 31.099999999999945
    vertex 89.70285448356356 121.54000458346835 31.59999999999994
  endloop
endfacet
facet normal 0.6087614290087485 0.7933533402912138 -3.759009283883532e-14
  outer loop
    vertex 89.70285448356356 121.54000458346832 31.099999999999945
    vertex 89.80640787415683 121.4605452721694 31.59999999999994
    vertex 89.80640787415683 121.46054527216938 31.099999999999948
  endloop
endfacet
facet normal 0.382683432365094 0.9238795325112851 -4.604679743306381e-14
  outer loop
    vertex 89.70285448356356 121.54000458346832 31.099999999999945
    vertex 89.58226400611481 121.58995479472067 31.599999999999937
    vertex 89.70285448356356 121.54000458346835 31.59999999999994
  endloop
endfacet
facet normal 0.382683432365094 0.9238795325112851 -4.604679743306381e-14
  outer loop
    vertex 89.58226400611481 121.58995479472067 31.599999999999937
    vertex 89.70285448356356 121.54000458346832 31.099999999999945
    vertex 89.58226400611483 121.58995479472063 31.099999999999937
  endloop
endfacet
facet normal 0.1305261922200553 0.99144486137381 -5.136548887815856e-14
  outer loop
    vertex 89.58226400611483 121.58995479472063 31.099999999999937
    vertex 89.45285448356356 121.60699188157612 31.599999999999937
    vertex 89.58226400611481 121.58995479472067 31.599999999999937
  endloop
endfacet
facet normal 0.1305261922200553 0.99144486137381 -5.136548887815856e-14
  outer loop
    vertex 89.45285448356356 121.60699188157612 31.599999999999937
    vertex 89.58226400611483 121.58995479472063 31.099999999999937
    vertex 89.45285448356356 121.6069918815761 31.099999999999937
  endloop
endfacet
facet normal -0.13052619222003245 0.9914448613738129 -5.318370714169067e-14
  outer loop
    vertex 89.45285448356356 121.6069918815761 31.099999999999937
    vertex 89.3234449610123 121.58995479472067 31.599999999999937
    vertex 89.45285448356356 121.60699188157612 31.599999999999937
  endloop
endfacet
facet normal -0.13052619222003245 0.9914448613738129 -5.318370714169067e-14
  outer loop
    vertex 89.3234449610123 121.58995479472067 31.599999999999937
    vertex 89.45285448356356 121.6069918815761 31.099999999999937
    vertex 89.3234449610123 121.58995479472065 31.099999999999937
  endloop
endfacet
facet normal -0.38268343236508073 0.9238795325112905 -5.13775436537483e-14
  outer loop
    vertex 89.3234449610123 121.58995479472065 31.099999999999937
    vertex 89.20285448356356 121.54000458346835 31.599999999999937
    vertex 89.3234449610123 121.58995479472067 31.599999999999937
  endloop
endfacet
facet normal -0.38268343236508073 0.9238795325112905 -5.13775436537483e-14
  outer loop
    vertex 89.20285448356356 121.54000458346835 31.599999999999937
    vertex 89.3234449610123 121.58995479472065 31.099999999999937
    vertex 89.20285448356357 121.54000458346832 31.099999999999937
  endloop
endfacet
facet normal -0.6087614290087006 0.7933533402912505 -4.6070085471208735e-14
  outer loop
    vertex 89.20285448356357 121.54000458346832 31.099999999999937
    vertex 89.09930109297028 121.4605452721694 31.59999999999994
    vertex 89.20285448356356 121.54000458346835 31.599999999999937
  endloop
endfacet
facet normal -0.6087614290087006 0.7933533402912505 -4.6070085471208735e-14
  outer loop
    vertex 89.09930109297028 121.4605452721694 31.59999999999994
    vertex 89.20285448356357 121.54000458346832 31.099999999999937
    vertex 89.09930109297028 121.46054527216938 31.099999999999945
  endloop
endfacet
facet normal -0.7933533402912203 0.6087614290087401 -3.7623027098222074e-14
  outer loop
    vertex 89.09930109297028 121.46054527216938 31.099999999999945
    vertex 89.01984178167132 121.35699188157614 31.59999999999994
    vertex 89.09930109297028 121.4605452721694 31.59999999999994
  endloop
endfacet
facet normal -0.7933533402912203 0.6087614290087401 -3.7623027098222074e-14
  outer loop
    vertex 89.01984178167132 121.35699188157614 31.59999999999994
    vertex 89.09930109297028 121.46054527216938 31.099999999999945
    vertex 89.01984178167133 121.35699188157612 31.099999999999945
  endloop
endfacet
facet normal -0.9238795325112917 0.38268343236507807 -2.6612021603481882e-14
  outer loop
    vertex 88.96989157041902 121.23640140412738 31.099999999999955
    vertex 89.01984178167132 121.35699188157614 31.59999999999994
    vertex 89.01984178167133 121.35699188157612 31.099999999999945
  endloop
endfacet
facet normal -0.9238795325112917 0.38268343236507807 -2.6612021603481882e-14
  outer loop
    vertex 89.01984178167132 121.35699188157614 31.59999999999994
    vertex 88.96989157041902 121.23640140412738 31.099999999999955
    vertex 88.96989157041901 121.23640140412739 31.59999999999995
  endloop
endfacet
facet normal -0.9914448613738096 0.1305261922200577 -1.3787450814911844e-14
  outer loop
    vertex 88.95285448356356 121.1069918815761 31.09999999999996
    vertex 88.96989157041901 121.23640140412739 31.59999999999995
    vertex 88.96989157041902 121.23640140412738 31.099999999999955
  endloop
endfacet
facet normal -0.9914448613738096 0.1305261922200577 -1.3787450814911844e-14
  outer loop
    vertex 88.96989157041901 121.23640140412739 31.59999999999995
    vertex 88.95285448356356 121.1069918815761 31.09999999999996
    vertex 88.95285448356356 121.10699188157614 31.59999999999996
  endloop
endfacet
facet normal -0.9914448613738152 -0.1305261922200154 -2.3288038146084558e-17
  outer loop
    vertex 88.96989157041901 120.97758235902484 31.099999999999966
    vertex 88.95285448356356 121.10699188157614 31.59999999999996
    vertex 88.95285448356356 121.1069918815761 31.09999999999996
  endloop
endfacet
facet normal -0.9914448613738152 -0.1305261922200154 -2.3288038146084558e-17
  outer loop
    vertex 88.95285448356356 121.10699188157614 31.59999999999996
    vertex 88.96989157041901 120.97758235902484 31.099999999999966
    vertex 88.96989157041901 120.97758235902488 31.599999999999966
  endloop
endfacet
facet normal -0.9238795325112844 -0.3826834323650954 1.3742461779937773e-14
  outer loop
    vertex 89.01984178167133 120.85699188157612 31.09999999999997
    vertex 88.96989157041901 120.97758235902488 31.599999999999966
    vertex 88.96989157041901 120.97758235902484 31.099999999999966
  endloop
endfacet
facet normal -0.9238795325112844 -0.3826834323650954 1.3742461779937773e-14
  outer loop
    vertex 88.96989157041901 120.97758235902488 31.599999999999966
    vertex 89.01984178167133 120.85699188157612 31.09999999999997
    vertex 89.01984178167132 120.85699188157614 31.59999999999997
  endloop
endfacet
facet normal -0.7933533402912492 -0.6087614290087026 2.6571685538207156e-14
  outer loop
    vertex 89.09930109297028 120.75343849098283 31.099999999999977
    vertex 89.01984178167132 120.85699188157614 31.59999999999997
    vertex 89.01984178167133 120.85699188157612 31.09999999999997
  endloop
endfacet
facet normal -0.7933533402912492 -0.6087614290087026 2.6571685538207156e-14
  outer loop
    vertex 89.01984178167132 120.85699188157614 31.59999999999997
    vertex 89.09930109297028 120.75343849098283 31.099999999999977
    vertex 89.09930109297026 120.75343849098286 31.599999999999977
  endloop
endfacet
facet normal -0.6087614290087485 -0.7933533402912138 3.759009283883532e-14
  outer loop
    vertex 89.20285448356354 120.67397917968388 31.099999999999984
    vertex 89.09930109297026 120.75343849098286 31.599999999999977
    vertex 89.09930109297028 120.75343849098283 31.099999999999977
  endloop
endfacet
facet normal -0.6087614290087485 -0.7933533402912138 3.759009283883532e-14
  outer loop
    vertex 89.09930109297026 120.75343849098286 31.599999999999977
    vertex 89.20285448356354 120.67397917968388 31.099999999999984
    vertex 89.20285448356354 120.67397917968391 31.59999999999998
  endloop
endfacet
facet normal -0.382683432365094 -0.9238795325112851 4.604679743306381e-14
  outer loop
    vertex 89.20285448356354 120.67397917968388 31.099999999999984
    vertex 89.32344496101227 120.62402896843159 31.599999999999987
    vertex 89.20285448356354 120.67397917968391 31.59999999999998
  endloop
endfacet
facet normal -0.382683432365094 -0.9238795325112851 4.604679743306381e-14
  outer loop
    vertex 89.32344496101227 120.62402896843159 31.599999999999987
    vertex 89.20285448356354 120.67397917968388 31.099999999999984
    vertex 89.32344496101229 120.62402896843156 31.099999999999987
  endloop
endfacet
facet normal -0.1305261922200553 -0.99144486137381 5.136548887815856e-14
  outer loop
    vertex 89.32344496101229 120.62402896843156 31.099999999999987
    vertex 89.45285448356354 120.60699188157614 31.599999999999987
    vertex 89.32344496101227 120.62402896843159 31.599999999999987
  endloop
endfacet
facet normal -0.1305261922200553 -0.99144486137381 5.136548887815856e-14
  outer loop
    vertex 89.45285448356354 120.60699188157614 31.599999999999987
    vertex 89.32344496101229 120.62402896843156 31.099999999999987
    vertex 89.45285448356356 120.6069918815761 31.099999999999987
  endloop
endfacet
facet normal 0.13052619222003245 -0.9914448613738129 5.318370714169067e-14
  outer loop
    vertex 89.45285448356356 120.6069918815761 31.099999999999987
    vertex 89.5822640061148 120.62402896843159 31.599999999999987
    vertex 89.45285448356354 120.60699188157614 31.599999999999987
  endloop
endfacet
facet normal 0.13052619222003245 -0.9914448613738129 5.318370714169067e-14
  outer loop
    vertex 89.5822640061148 120.62402896843159 31.599999999999987
    vertex 89.45285448356356 120.6069918815761 31.099999999999987
    vertex 89.58226400611481 120.62402896843156 31.099999999999987
  endloop
endfacet
facet normal 0.38268343236508073 -0.9238795325112905 5.13775436537483e-14
  outer loop
    vertex 89.58226400611481 120.62402896843156 31.099999999999987
    vertex 89.70285448356354 120.67397917968391 31.599999999999987
    vertex 89.5822640061148 120.62402896843159 31.599999999999987
  endloop
endfacet
facet normal 0.38268343236508073 -0.9238795325112905 5.13775436537483e-14
  outer loop
    vertex 89.70285448356354 120.67397917968391 31.599999999999987
    vertex 89.58226400611481 120.62402896843156 31.099999999999987
    vertex 89.70285448356354 120.67397917968388 31.099999999999987
  endloop
endfacet
facet normal 0.6087614290087006 -0.7933533402912505 4.6070085471208735e-14
  outer loop
    vertex 89.70285448356354 120.67397917968388 31.099999999999987
    vertex 89.80640787415682 120.75343849098286 31.59999999999998
    vertex 89.70285448356354 120.67397917968391 31.599999999999987
  endloop
endfacet
facet normal 0.6087614290087006 -0.7933533402912505 4.6070085471208735e-14
  outer loop
    vertex 89.80640787415682 120.75343849098286 31.59999999999998
    vertex 89.70285448356354 120.67397917968388 31.099999999999987
    vertex 89.80640787415682 120.75343849098283 31.099999999999984
  endloop
endfacet
facet normal 0.7933533402912203 -0.6087614290087401 3.7623027098222074e-14
  outer loop
    vertex 89.80640787415682 120.75343849098283 31.099999999999984
    vertex 89.88586718545577 120.85699188157612 31.599999999999977
    vertex 89.80640787415682 120.75343849098286 31.59999999999998
  endloop
endfacet
facet normal 0.7933533402912203 -0.6087614290087401 3.7623027098222074e-14
  outer loop
    vertex 89.88586718545577 120.85699188157612 31.599999999999977
    vertex 89.80640787415682 120.75343849098283 31.099999999999984
    vertex 89.88586718545577 120.85699188157609 31.099999999999977
  endloop
endfacet
facet normal 0.9238795325112917 -0.38268343236507807 2.6612021603481882e-14
  outer loop
    vertex 89.88586718545577 120.85699188157612 31.599999999999977
    vertex 89.93581739670809 120.97758235902484 31.09999999999997
    vertex 89.93581739670807 120.97758235902486 31.59999999999997
  endloop
endfacet
facet normal 0.9238795325112917 -0.38268343236507807 2.6612021603481882e-14
  outer loop
    vertex 89.93581739670809 120.97758235902484 31.09999999999997
    vertex 89.88586718545577 120.85699188157612 31.599999999999977
    vertex 89.88586718545577 120.85699188157609 31.099999999999977
  endloop
endfacet
facet normal 0.9914448613738096 -0.1305261922200577 1.3787450814911844e-14
  outer loop
    vertex 89.93581739670807 120.97758235902486 31.59999999999997
    vertex 89.95285448356356 121.1069918815761 31.099999999999966
    vertex 89.95285448356354 121.10699188157614 31.599999999999966
  endloop
endfacet
facet normal 0.9914448613738096 -0.1305261922200577 1.3787450814911844e-14
  outer loop
    vertex 89.95285448356356 121.1069918815761 31.099999999999966
    vertex 89.93581739670807 120.97758235902486 31.59999999999997
    vertex 89.93581739670809 120.97758235902484 31.09999999999997
  endloop
endfacet
facet normal 0.9914448613738152 0.1305261922200154 2.3288038146084558e-17
  outer loop
    vertex 89.95285448356354 121.10699188157614 31.599999999999966
    vertex 89.93581739670809 121.23640140412735 31.09999999999996
    vertex 89.93581739670809 121.23640140412738 31.59999999999996
  endloop
endfacet
facet normal 0.9914448613738152 0.1305261922200154 2.3288038146084558e-17
  outer loop
    vertex 89.93581739670809 121.23640140412735 31.09999999999996
    vertex 89.95285448356354 121.10699188157614 31.599999999999966
    vertex 89.95285448356356 121.1069918815761 31.099999999999966
  endloop
endfacet
facet normal 0.9238795325112839 0.38268343236509667 -1.3742461779937846e-14
  outer loop
    vertex 89.93581739670809 121.23640140412738 31.59999999999996
    vertex 89.88586718545577 121.35699188157609 31.099999999999955
    vertex 89.88586718545577 121.35699188157612 31.59999999999995
  endloop
endfacet
facet normal 0.9238795325112839 0.38268343236509667 -1.3742461779937846e-14
  outer loop
    vertex 89.88586718545577 121.35699188157609 31.099999999999955
    vertex 89.93581739670809 121.23640140412738 31.59999999999996
    vertex 89.93581739670809 121.23640140412735 31.09999999999996
  endloop
endfacet
endsolid GarageDoorMonitorCaseWithOLED
